{
  "accessors": [
    {
      "bufferView": 2,
      "componentType": 5126,
      "count": 9980,
      "max": [
        86.77385711669922,
        120.37413024902344,
        182.2042999267578
      ],
      "min": [
        -86.77385711669922,
        -14.747522354125977,
        -8.200035095214844
      ],
      "type": "VEC3"
    },
    {
      "bufferView": 2,
      "byteOffset": 119760,
      "componentType": 5126,
      "count": 9980,
      "max": [
        1.0,
        1.0,
        1.0
      ],
      "min": [
        -1.0,
        -1.0,
        -1.0
      ],
      "type": "VEC3"
    },
    {
      "bufferView": 3,
      "componentType": 5126,
      "count": 9980,
      "max": [
        1.0,
        1.0,
        1.0,
        1.0
      ],
      "min": [
        -1.0,
        -1.0,
        -1.0,
        -1.0
      ],
      "type": "VEC4"
    },
    {
      "bufferView": 1,
      "componentType": 5126,
      "count": 9980,
      "max": [
        0.9946632981300354,
        2430.25
      ],
      "min": [
        0.0006409280467778444,
        -27645.25
      ],
      "type": "VEC2"
    },
    {
      "bufferView": 0,
      "componentType": 5125,
      "count": 20964,
      "type": "SCALAR"
    },
    {
      "bufferView": 2,
      "byteOffset": 239520,
      "componentType": 5126,
      "count": 228,
      "max": [
        16.565067291259766,
        89.8482894897461,
        -0.7047569155693054
      ],
      "min": [
        -16.565067291259766,
        -4.80952787399292,
        -89.53777313232422
      ],
      "type": "VEC3"
    },
    {
      "bufferView": 2,
      "byteOffset": 242256,
      "componentType": 5126,
      "count": 228,
      "max": [
        0.9986818432807922,
        0.9999827742576599,
        0.999993085861206
      ],
      "min": [
        -0.9989168643951416,
        -0.9980096817016602,
        -0.9939755797386169
      ],
      "type": "VEC3"
    },
    {
      "bufferView": 3,
      "byteOffset": 159680,
      "componentType": 5126,
      "count": 228,
      "max": [
        0.9999934434890747,
        0.9955862760543823,
        0.9912903308868408,
        1.0
      ],
      "min": [
        -0.999996542930603,
        -0.9951346516609192,
        -0.9956147074699402,
        -1.0
      ],
      "type": "VEC4"
    },
    {
      "bufferView": 1,
      "byteOffset": 79840,
      "componentType": 5126,
      "count": 228,
      "max": [
        0.31861957907676697,
        0.5056314468383789
      ],
      "min": [
        0.02893151342868805,
        0.06491345167160034
      ],
      "type": "VEC2"
    },
    {
      "bufferView": 0,
      "byteOffset": 83856,
      "componentType": 5125,
      "count": 1236,
      "type": "SCALAR"
    },
    {
      "bufferView": 2,
      "byteOffset": 244992,
      "componentType": 5126,
      "count": 336,
      "max": [
        15.9900484085083,
        1.5938514471054077,
        22.233325958251953
      ],
      "min": [
        -15.9900484085083,
        -7.247210502624512,
        -26.78488540649414
      ],
      "type": "VEC3"
    },
    {
      "bufferView": 2,
      "byteOffset": 249024,
      "componentType": 5126,
      "count": 336,
      "max": [
        0.9999561905860901,
        0.9999995231628418,
        0.9998858571052551
      ],
      "min": [
        -0.9999561905860901,
        -0.9999896883964539,
        -0.9997804164886475
      ],
      "type": "VEC3"
    },
    {
      "bufferView": 3,
      "byteOffset": 163328,
      "componentType": 5126,
      "count": 336,
      "max": [
        0.9968533515930176,
        0.9999683499336243,
        0.9898144006729126,
        1.0
      ],
      "min": [
        -1.0,
        -0.24677976965904236,
        -0.9301829934120178,
        1.0
      ],
      "type": "VEC4"
    },
    {
      "bufferView": 1,
      "byteOffset": 81664,
      "componentType": 5126,
      "count": 336,
      "max": [
        0.6628052592277527,
        0.6826422214508057
      ],
      "min": [
        0.469004362821579,
        0.11462867259979248
      ],
      "type": "VEC2"
    },
    {
      "bufferView": 0,
      "byteOffset": 88800,
      "componentType": 5125,
      "count": 1644,
      "type": "SCALAR"
    },
    {
      "bufferView": 2,
      "byteOffset": 253056,
      "componentType": 5126,
      "count": 2314,
      "max": [
        121.9401626586914,
        3.77533221244812,
        3.7753310203552246
      ],
      "min": [
        -121.9401626586914,
        -3.7753305435180664,
        -3.7753310203552246
      ],
      "type": "VEC3"
    },
    {
      "bufferView": 2,
      "byteOffset": 280824,
      "componentType": 5126,
      "count": 2314,
      "max": [
        1.0,
        1.0,
        1.0
      ],
      "min": [
        -1.0,
        -1.0,
        -1.0
      ],
      "type": "VEC3"
    },
    {
      "bufferView": 3,
      "byteOffset": 168704,
      "componentType": 5126,
      "count": 2314,
      "max": [
        0.999502956867218,
        1.0,
        1.0,
        1.0
      ],
      "min": [
        -1.0,
        -1.0,
        -1.0,
        1.0
      ],
      "type": "VEC4"
    },
    {
      "bufferView": 1,
      "byteOffset": 84352,
      "componentType": 5126,
      "count": 2314,
      "max": [
        0.9491935968399048,
        0.9941335916519165
      ],
      "min": [
        0.015695694833993912,
        0.005836844444274902
      ],
      "type": "VEC2"
    },
    {
      "bufferView": 0,
      "byteOffset": 95376,
      "componentType": 5125,
      "count": 8208,
      "type": "SCALAR"
    }
  ],
  "asset": {
    "extras": {
      "author": "Sousinho (https://sketchfab.com/sousinho)",
      "license": "CC-BY-4.0 (http://creativecommons.org/licenses/by/4.0/)",
      "source": "https://sketchfab.com/3d-models/flat-bench-b56ab6e2b50246c88c7f72a4f16fc857",
      "title": "Flat Bench"
    },
    "generator": "Sketchfab-12.68.0",
    "version": "2.0"
  },
  "bufferViews": [
    {
      "buffer": 0,
      "byteLength": 128208,
      "name": "floatBufferViews",
      "target": 34963
    },
    {
      "buffer": 0,
      "byteLength": 102864,
      "byteOffset": 128208,
      "byteStride": 8,
      "name": "floatBufferViews",
      "target": 34962
    },
    {
      "buffer": 0,
      "byteLength": 308592,
      "byteOffset": 231072,
      "byteStride": 12,
      "name": "floatBufferViews",
      "target": 34962
    },
    {
      "buffer": 0,
      "byteLength": 205728,
      "byteOffset": 539664,
      "byteStride": 16,
      "name": "floatBufferViews",
      "target": 34962
    }
  ],
  "buffers": [
    {
      "byteLength": 745392,
      "uri": "scene.bin"
    }
  ],
  "images": [
    {
      "uri": "textures/flat_bench_baseColor.png"
    },
    {
      "uri": "textures/flat_bench_metallicRoughness.png"
    },
    {
      "uri": "textures/flat_bench_emissive.png"
    },
    {
      "uri": "textures/flat_bench_normal.png"
    },
    {
      "uri": "textures/20kg_barbell_baseColor.png"
    },
    {
      "uri": "textures/20kg_barbell_metallicRoughness.png"
    },
    {
      "uri": "textures/20kg_barbell_emissive.png"
    },
    {
      "uri": "textures/20kg_barbell_normal.png"
    }
  ],
  "materials": [
    {
      "doubleSided": true,
      "emissiveFactor": [
        1.0,
        1.0,
        1.0
      ],
      "emissiveTexture": {
        "index": 2
      },
      "name": "flat_bench",
      "normalTexture": {
        "index": 3
      },
      "pbrMetallicRoughness": {
        "baseColorTexture": {
          "index": 0
        },
        "metallicRoughnessTexture": {
          "index": 1
        }
      }
    },
    {
      "doubleSided": true,
      "emissiveFactor": [
        1.0,
        1.0,
        1.0
      ],
      "emissiveTexture": {
        "index": 6
      },
      "name": "20kg_barbell",
      "normalTexture": {
        "index": 7
      },
      "pbrMetallicRoughness": {
        "baseColorTexture": {
          "index": 4
        },
        "metallicRoughnessTexture": {
          "index": 5
        }
      }
    }
  ],
  "meshes": [
    {
      "name": "Cube.034_flat bench_0",
      "primitives": [
        {
          "attributes": {
            "NORMAL": 1,
            "POSITION": 0,
            "TANGENT": 2,
            "TEXCOORD_0": 3
          },
          "indices": 4,
          "material": 0,
          "mode": 4
        }
      ]
    },
    {
      "name": "Cube.033_flat bench_0",
      "primitives": [
        {
          "attributes": {
            "NORMAL": 6,
            "POSITION": 5,
            "TANGENT": 7,
            "TEXCOORD_0": 8
          },
          "indices": 9,
          "material": 0,
          "mode": 4
        }
      ]
    },
    {
      "name": "Cube.032_flat bench_0",
      "primitives": [
        {
          "attributes": {
            "NORMAL": 11,
            "POSITION": 10,
            "TANGENT": 12,
            "TEXCOORD_0": 13
          },
          "indices": 14,
          "material": 0,
          "mode": 4
        }
      ]
    },
    {
      "name": "BARBELL low.002_20kg barbell_0",
      "primitives": [
        {
          "attributes": {
            "NORMAL": 16,
            "POSITION": 15,
            "TANGENT": 17,
            "TEXCOORD_0": 18
          },
          "indices": 19,
          "material": 1,
          "mode": 4
        }
      ]
    }
  ],
  "nodes": [
    {
      "children": [
        1
      ],
      "matrix": [
        1.0,
        0.0,
        0.0,
        0.0,
        0.0,
        2.220446049250313e-16,
        -1.0,
        0.0,
        0.0,
        1.0,
        2.220446049250313e-16,
        0.0,
        0.0,
        0.0,
        0.0,
        1.0
      ],
      "name": "Sketchfab_model"
    },
    {
      "children": [
        2
      ],
      "matrix": [
        0.009999999776482582,
        0.0,
        0.0,
        0.0,
        0.0,
        0.0,
        0.009999999776482582,
        0.0,
        0.0,
        -0.009999999776482582,
        0.0,
        0.0,
        0.0,
        0.0,
        0.0,
        1.0
      ],
      "name": "flat bench_low.fbx"
    },
    {
      "children": [
        3,
        5,
        7,
        9
      ],
      "name": "RootNode"
    },
    {
      "children": [
        4
      ],
      "matrix": [
        1.0,
        0.0,
        0.0,
        0.0,
        0.0,
        1.0,
        0.0,
        0.0,
        0.0,
        0.0,
        1.0,
        0.0,
        4.0924787521362305,
        7.443007946014404,
        -42.49660873413086,
        1.0
      ],
      "name": "Cube.034"
    },
    {
      "mesh": 0,
      "name": "Cube.034_flat bench_0"
    },
    {
      "children": [
        6
      ],
      "matrix": [
        1.0,
        0.0,
        0.0,
        0.0,
        0.0,
        0.6875086830721339,
        -0.7261761567969718,
        0.0,
        0.0,
        0.7261761567969718,
        0.6875086830721339,
        0.0,
        5.031132698059082,
        25.692882537841797,
        90.05072021484375,
        1.0
      ],
      "name": "Cube.033"
    },
    {
      "mesh": 1,
      "name": "Cube.033_flat bench_0"
    },
    {
      "children": [
        8
      ],
      "matrix": [
        1.0,
        0.0,
        0.0,
        0.0,
        0.0,
        1.0,
        0.0,
        0.0,
        0.0,
        0.0,
        1.0,
        0.0,
        4.583024978637695,
        24.65410614013672,
        117.18647766113281,
        1.0
      ],
      "name": "Cube.032"
    },
    {
      "mesh": 2,
      "name": "Cube.032_flat bench_0"
    },
    {
      "children": [
        10
      ],
      "matrix": [
        1.0,
        0.0,
        0.0,
        0.0,
        0.0,
        1.0,
        0.0,
        0.0,
        0.0,
        0.0,
        1.0,
        0.0,
        5.04026460647583,
        86.65977478027344,
        -33.50534439086914,
        1.0
      ],
      "name": "BARBELL low.002"
    },
    {
      "mesh": 3,
      "name": "BARBELL low.002_20kg barbell_0"
    }
  ],
  "samplers": [
    {
      "magFilter": 9729,
      "minFilter": 9987,
      "wrapS": 10497,
      "wrapT": 10497
    }
  ],
  "scene": 0,
  "scenes": [
    {
      "name": "Sketchfab_Scene",
      "nodes": [
        0
      ]
    }
  ],
  "textures": [
    {
      "sampler": 0,
      "source": 0
    },
    {
      "sampler": 0,
      "source": 1
    },
    {
      "sampler": 0,
      "source": 2
    },
    {
      "sampler": 0,
      "source": 3
    },
    {
      "sampler": 0,
      "source": 4
    },
    {
      "sampler": 0,
      "source": 5
    },
    {
      "sampler": 0,
      "source": 6
    },
    {
      "sampler": 0,
      "source": 7
    }
  ]
}
